<?xml version="1.0" encoding="utf-8"?>
<!-- Generator: Adobe Illustrator 21.0.2, SVG Export Plug-In . SVG Version: 6.00 Build 0)  -->
<svg version="1.1" id="Layer_1" xmlns="http://www.w3.org/2000/svg" xmlns:xlink="http://www.w3.org/1999/xlink" x="0px" y="0px"
	 width="160px" height="160px" viewBox="-40 -20 160 160" style="enable-background:new 0 0 96 133;" xml:space="preserve">
<style type="text/css">
	.st0{opacity:0.15;fill:#353332;}
	.st1{fill:#F29B44;stroke:#333336;stroke-miterlimit:10;}
	.st2{fill:#F29B44;}
	.st3{fill:#333336;}
	.st4{fill:#FFFFFF;}
	.st5{fill:none;stroke:#333336;stroke-miterlimit:10;}
	.st6{opacity:0.3;}
	.st7{fill:#353332;}
</style>
<path class="st0" d="M70,120.7c0,4.7-10.8,12.8-36.8,12.3C6.2,132.5,0,125.1,0,120.5s15.7-8.4,35-8.3C54.4,112.2,70,116,70,120.7z"
	/>
<g id="body_1_">
	<path id="tail" class="st1" d="M63.3,85.6c0,0,0-8,10-12c7.3-2.9,12.3-11.3,6-16c-4-3-8-8-4-13c2.8-3.5,12.7-4.9,18.3,7.2
		c3.9,8.4,3.5,22.2-19.3,29.8c-9,3-8,18-8,18"/>
	<g id="body">
		<path class="st2" d="M34.8,127.1c-14.9,0-24.7-3.9-29.2-11.6c-9.1-15.5,6-42.7,12.5-54.3c1.3-2.3,2.5-4.4,2.8-5.3
			c-6-1.3-10.1-4.2-12.3-8.6c-4.6-9.3,1-22.3,2.2-24.8c0.1-0.1,0.1-0.3,0.1-0.4L9.9,2.1c0-0.4,0.1-0.8,0.4-1.1
			c0.3-0.3,0.7-0.5,1.1-0.5c0.4,0,0.7,0.1,1,0.4l10.5,9.7c0.2,0.1,0.4,0.2,0.6,0.2c0.1,0,0.3,0,0.4-0.1c1.6-0.8,5.7-2.6,10.4-2.6
			c8,0,13.5,2.5,15.5,3.6c0.1,0.1,0.3,0.1,0.4,0.1c0.2,0,0.4-0.1,0.6-0.2l9.8-8.3c0.3-0.3,0.8-0.4,1.2-0.4c0.5,0,1,0.2,1.4,0.6
			c0.3,0.4,0.5,0.9,0.5,1.4l-1.7,19.4c0,0.1,0,0.3,0.1,0.4c1.1,2.6,6.2,15.8,1,24.4c-2.5,4-6.8,6.4-13,7c0.3,0.7,1.2,2.3,2.1,4
			c5.9,10.7,21.6,39.1,12.3,55.3c-4.4,7.6-13.8,11.6-28,11.8C35.8,127.1,35.3,127.1,34.8,127.1z"/>
		<path class="st3" d="M11.4,1c0.2,0,0.5,0.1,0.7,0.3l10.5,9.7c0.3,0.2,0.6,0.4,0.9,0.4c0.2,0,0.4,0,0.6-0.1
			c1.7-0.8,5.6-2.6,10.2-2.6c7.9,0,13.3,2.5,15.2,3.5c0.2,0.1,0.4,0.2,0.6,0.2c0.3,0,0.6-0.1,0.9-0.3l9.8-8.3
			c0.3-0.2,0.6-0.3,0.9-0.3c0.7,0,1.4,0.6,1.4,1.5l-1.7,19.4c0,0.2,0,0.4,0.1,0.6c1.3,3.1,11.4,28.8-12.1,30.7c-2,0.2,48,70-13,71
			c-0.5,0-1,0-1.5,0c-63.7,0-11-70.5-13.5-71C-1.3,50.9,9.8,25.9,11.2,22.9c0.1-0.2,0.1-0.4,0.1-0.6L10.4,2.1
			C10.4,1.4,10.9,1,11.4,1 M11.4,0L11.4,0c-0.6,0-1.1,0.2-1.5,0.6C9.6,1,9.4,1.6,9.4,2.1l0.9,20.2c0,0.1,0,0.1,0,0.2
			C9.1,25,3.4,38.1,8.1,47.6c2.2,4.4,6.2,7.3,12,8.7c-0.5,1-1.5,2.8-2.5,4.7c-6.5,11.7-21.7,39-12.5,54.8
			c4.6,7.8,14.6,11.8,29.7,11.8c0.5,0,1,0,1.5,0c14.3-0.2,23.9-4.3,28.4-12.1c9.5-16.4-6.3-45-12.3-55.7c-0.7-1.3-1.4-2.5-1.8-3.3
			c6-0.7,10.3-3.1,12.7-7.1c5.3-8.7,0.1-22.2-1-24.8c0,0,0-0.1,0-0.2L64,4.9c0.1-0.7-0.2-1.3-0.6-1.8c-0.4-0.5-1.1-0.8-1.7-0.8
			c-0.6,0-1.1,0.2-1.5,0.6l-9.8,8.3c-0.1,0.1-0.1,0.1-0.2,0.1c-0.1,0-0.1,0-0.2,0c-2-1.1-7.6-3.7-15.7-3.7c-4.8,0-9,1.9-10.6,2.7
			c-0.1,0-0.1,0-0.2,0c-0.1,0-0.2,0-0.2-0.1L12.8,0.5C12.4,0.2,11.9,0,11.4,0L11.4,0z"/>
	</g>
</g>
<g id="eyes">
	<circle class="st3" cx="21.6" cy="29.3" r="3.2"/>
	<circle class="st4" cx="22.8" cy="28.1" r="1"/>
	<circle class="st3" cx="50.6" cy="29.3" r="3.2"/>
	<circle class="st4" cx="51.8" cy="28.1" r="1"/>
</g>
<g id="whiskers">
	<path class="st5" d="M48.2,39.1c0,0,5.1,0.5,7,1.1"/>
	<path class="st5" d="M47.5,41.2c0,0,4.8,1.6,6.6,2.6"/>
	<path class="st5" d="M22.6,38.4c0,0-5.1,0-7.1,0.4"/>
	<path class="st5" d="M23,40.6c0,0-5,1.1-6.8,1.9"/>
</g>
<g id="shadow_1_" class="st6">
	<path id="shadow" class="st7" d="M66.3,97.5c0,0-2.5-15.4-8.5-25.4l-4.7-9c-2.5-4.6-4.2-7.4-3.8-7.5c9-0.7,13-4.9,14.6-10
		c0,0,0.9-2.8,0.9-5.5c0-3.5-1-8-1-8s1.4,7.3-2,13c-3.2,5.4-12,7.3-15,7c-10.1-1-11.5-3.5-11.5-3.5s0.5,4.5,5.5,9.5
		c1.7,1.7,6.8,6.6,8,8c10,12,17,34,8,45c-6.2,7.6-12,11.2-25,12c-16,1-24.6-6.3-24.9-6.4c4.5,6.2,13.4,10.2,29.4,9.9
		C62.9,126.2,68.4,112.6,66.3,97.5z"/>
	<path class="st7" d="M90.3,46.6c0.1,0.1,6.6,9.8,1,20c-2.5,4.5-9.4,7.1-16,8c-3.6,0.5-6.7,2.2-9.3,4.3c-2.7,3.4-2.7,6.7-2.7,6.7
		l3,14c0,0-1-15,8-18C97.1,74,97.5,60.2,93.7,51.8C92.7,49.7,91.5,48,90.3,46.6z"/>
	<path class="st7" d="M61.6,25.2c-0.1-0.1-0.1-0.2-0.1-0.3c-0.1-0.2-0.1-0.4-0.1-0.6L63,4.9c0.1-0.6-0.3-1.1-0.8-1.3
		c-1.5,1.6-2.4,4-3.4,6.6c-1.3,3.3-1,10-1,10S59.8,22,61.6,25.2z"/>
	<path class="st7" d="M11.8,1.1C11.8,1.1,11.8,1.1,11.8,1.1c0,0,3,2,5,7c1.9,4.7,1,8,1,8s2.7-3.4,4-4c0.6-0.3,1.2-0.6,1.8-0.8
		c-0.3,0-0.7-0.1-1-0.3L12.1,1.3C12,1.2,11.9,1.1,11.8,1.1z"/>
</g>
</svg>
