<svg id="Layer_1" xmlns="http://www.w3.org/2000/svg" width="96" height="133"><style>.st3{fill:#333336}.st4{fill:#fff}.st7{fill:#353332}</style><path d="M70 120.7c0 4.7-10.8 12.8-36.8 12.3-27-.5-33.2-7.9-33.2-12.5s15.7-8.4 35-8.3c19.4 0 35 3.8 35 8.5z" opacity=".15" fill="#353332"/><g id="body_1_"><path id="tail" d="M63.3 85.6s0-8 10-12c7.3-2.9 12.3-11.3 6-16-4-3-8-8-4-13 2.8-3.5 12.7-4.9 18.3 7.2 3.9 8.4 3.5 22.2-19.3 29.8-9 3-8 18-8 18" fill="#f29b44" stroke="#333336" stroke-miterlimit="10"/><g id="body"><path d="M34.8 127.1c-14.9 0-24.7-3.9-29.2-11.6-9.1-15.5 6-42.7 12.5-54.3 1.3-2.3 2.5-4.4 2.8-5.3-6-1.3-10.1-4.2-12.3-8.6C4 38 9.6 25 10.8 22.5c.1-.1.1-.3.1-.4l-1-20c0-.4.1-.8.4-1.1.3-.3.7-.5 1.1-.5.4 0 .7.1 1 .4l10.5 9.7c.2.1.4.2.6.2.1 0 .3 0 .4-.1 1.6-.8 5.7-2.6 10.4-2.6 8 0 13.5 2.5 15.5 3.6.1.1.3.1.4.1.2 0 .4-.1.6-.2l9.8-8.3c.3-.3.8-.4 1.2-.4.5 0 1 .2 1.4.6.3.4.5.9.5 1.4L62 24.3c0 .1 0 .3.1.4 1.1 2.6 6.2 15.8 1 24.4-2.5 4-6.8 6.4-13 7 .3.7 1.2 2.3 2.1 4 5.9 10.7 21.6 39.1 12.3 55.3-4.4 7.6-13.8 11.6-28 11.8-.7-.1-1.2-.1-1.7-.1z" fill="#f29b44"/><path class="st3" d="M11.4 1c.2 0 .5.1.7.3L22.6 11c.3.2.6.4.9.4.2 0 .4 0 .6-.1 1.7-.8 5.6-2.6 10.2-2.6 7.9 0 13.3 2.5 15.2 3.5.2.1.4.2.6.2.3 0 .6-.1.9-.3l9.8-8.3c.3-.2.6-.3.9-.3.7 0 1.4.6 1.4 1.5l-1.7 19.4c0 .2 0 .4.1.6 1.3 3.1 11.4 28.8-12.1 30.7-2 .2 48 70-13 71h-1.5c-63.7 0-11-70.5-13.5-71-22.7-4.8-11.6-29.8-10.2-32.8.1-.2.1-.4.1-.6l-.9-20.2c0-.7.5-1.1 1-1.1m0-1c-.6 0-1.1.2-1.5.6-.3.4-.5 1-.5 1.5l.9 20.2v.2C9.1 25 3.4 38.1 8.1 47.6c2.2 4.4 6.2 7.3 12 8.7-.5 1-1.5 2.8-2.5 4.7-6.5 11.7-21.7 39-12.5 54.8 4.6 7.8 14.6 11.8 29.7 11.8h1.5c14.3-.2 23.9-4.3 28.4-12.1 9.5-16.4-6.3-45-12.3-55.7-.7-1.3-1.4-2.5-1.8-3.3 6-.7 10.3-3.1 12.7-7.1 5.3-8.7.1-22.2-1-24.8v-.2L64 4.9c.1-.7-.2-1.3-.6-1.8-.4-.5-1.1-.8-1.7-.8-.6 0-1.1.2-1.5.6l-9.8 8.3c-.1.1-.1.1-.2.1H50c-2-1.1-7.6-3.7-15.7-3.7-4.8 0-9 1.9-10.6 2.7h-.2c-.1 0-.2 0-.2-.1L12.8.5c-.4-.3-.9-.5-1.4-.5z"/></g></g><g id="eyes"><circle class="st3" cx="21.6" cy="29.3" r="3.2"/><circle class="st4" cx="22.8" cy="28.1" r="1"/><circle class="st3" cx="50.6" cy="29.3" r="3.2"/><circle class="st4" cx="51.8" cy="28.1" r="1"/></g><path d="M48.2 39.1s5.1.5 7 1.1m-7.7 1s4.8 1.6 6.6 2.6m-31.5-5.4s-5.1 0-7.1.4m7.5 1.8s-5 1.1-6.8 1.9" fill="none" stroke="#333336" stroke-miterlimit="10" id="whiskers"/><g id="shadow_1_" opacity=".3"><path id="shadow" class="st7" d="M66.3 97.5s-2.5-15.4-8.5-25.4l-4.7-9c-2.5-4.6-4.2-7.4-3.8-7.5 9-.7 13-4.9 14.6-10 0 0 .9-2.8.9-5.5 0-3.5-1-8-1-8s1.4 7.3-2 13c-3.2 5.4-12 7.3-15 7-10.1-1-11.5-3.5-11.5-3.5s.5 4.5 5.5 9.5c1.7 1.7 6.8 6.6 8 8 10 12 17 34 8 45-6.2 7.6-12 11.2-25 12-16 1-24.6-6.3-24.9-6.4 4.5 6.2 13.4 10.2 29.4 9.9 26.6-.4 32.1-14 30-29.1z"/><path class="st7" d="M90.3 46.6c.1.1 6.6 9.8 1 20-2.5 4.5-9.4 7.1-16 8-3.6.5-6.7 2.2-9.3 4.3-2.7 3.4-2.7 6.7-2.7 6.7l3 14s-1-15 8-18C97.1 74 97.5 60.2 93.7 51.8c-1-2.1-2.2-3.8-3.4-5.2zM61.6 25.2c-.1-.1-.1-.2-.1-.3-.1-.2-.1-.4-.1-.6L63 4.9c.1-.6-.3-1.1-.8-1.3-1.5 1.6-2.4 4-3.4 6.6-1.3 3.3-1 10-1 10s2 1.8 3.8 5zM11.8 1.1s3 2 5 7c1.9 4.7 1 8 1 8s2.7-3.4 4-4c.6-.3 1.2-.6 1.8-.8-.3 0-.7-.1-1-.3L12.1 1.3c-.1-.1-.2-.2-.3-.2z"/></g></svg>